# xmcd
#
# Track frame offsets:
#	150
#	21848
#	42805
#	66690
#	93078
#	123128
#	147765
#	169055
#	191948
#	215030
#
# Disc length: 3185 seconds
#
# Revision: 0
# Processed by: cddbd v1.5.2PL0 Copyright (c) Steve Scherf et al.
# Submitted via: EZCDAudioConverter 8.0.2.1
#
DISCID=910c6f0a
DTITLE=Various Artist - Đại Hội New Way 1
DYEAR=1991
DGENRE=New Wave
TTITLE0=Kiều Nga - Tasle Look Coco
TTITLE1=Tuyết Nhung - Good Guys Only in Movies
TTITLE2=Ngọc Tuyết - Love is the Name of the Game
TTITLE3=Ngọc Lan - Ibony Eyes
TTITLE4=Trung Hành - Lady Of Ice
TTITLE5=Elvis Phương - Quand on ne peut pas
TTITLE6=Lilian - Don't Loose My Number
TTITLE7=Thái Thảo - You Shot a Hole in My Soul
TTITLE8=Cao Lâm - I Wanna Here Your Heart Beat
TTITLE9=Thúy Vy Lê - You're My Heart My Soul
EXTD=
EXTT0=
EXTT1=
EXTT2=
EXTT3=
EXTT4=
EXTT5=
EXTT6=
EXTT7=
EXTT8=
EXTT9=
PLAYORDER=
